<?xml version="1.0" encoding="UTF-8" standalone="no"?>
<!-- Created with Inkscape (http://www.inkscape.org/) -->

<svg
   xmlns:dc="http://purl.org/dc/elements/1.1/"
   xmlns:cc="http://creativecommons.org/ns#"
   xmlns:rdf="http://www.w3.org/1999/02/22-rdf-syntax-ns#"
   xmlns:svg="http://www.w3.org/2000/svg"
   xmlns="http://www.w3.org/2000/svg"
   xmlns:sodipodi="http://sodipodi.sourceforge.net/DTD/sodipodi-0.dtd"
   xmlns:inkscape="http://www.inkscape.org/namespaces/inkscape"
   width="95.149132mm"
   height="95.149132mm"
   viewBox="0 0 337.14259 337.14259"
   id="svg2"
   version="1.1"
   inkscape:version="0.91 r13725"
   sodipodi:docname="server.svg">
  <defs
     id="defs4" />
  <sodipodi:namedview
     id="base"
     pagecolor="#ffffff"
     bordercolor="#666666"
     borderopacity="1.0"
     inkscape:pageopacity="0.0"
     inkscape:pageshadow="2"
     inkscape:zoom="1.4142136"
     inkscape:cx="182.63282"
     inkscape:cy="135.4054"
     inkscape:document-units="px"
     inkscape:current-layer="layer1"
     showgrid="false"
     inkscape:window-width="960"
     inkscape:window-height="975"
     inkscape:window-x="960"
     inkscape:window-y="27"
     inkscape:window-maximized="0"
     showguides="true"
     inkscape:guide-bbox="true"
     fit-margin-top="0"
     fit-margin-left="0"
     fit-margin-right="0"
     fit-margin-bottom="0">
    <sodipodi:guide
       position="168.57032,337.36242"
       orientation="1,0"
       id="guide4198" />
    <sodipodi:guide
       position="-0.18359113,168.56554"
       orientation="0,1"
       id="guide4200" />
  </sodipodi:namedview>
  <metadata
     id="metadata7">
    <rdf:RDF>
      <cc:Work
         rdf:about="">
        <dc:format>image/svg+xml</dc:format>
        <dc:type
           rdf:resource="http://purl.org/dc/dcmitype/StillImage" />
        <dc:title />
      </cc:Work>
    </rdf:RDF>
  </metadata>
  <g
     inkscape:label="Camada 1"
     inkscape:groupmode="layer"
     id="layer1"
     style="display:inline"
     transform="translate(-145.71484,-246.64844)"
     sodipodi:insensitive="true">
    <path
       style="fill:#2890cb;fill-opacity:1;fill-rule:evenodd;stroke:none;stroke-width:1px;stroke-linecap:butt;stroke-linejoin:miter;stroke-opacity:1"
       d="M 168.57031,0 A 168.57143,168.57143 0 0 0 0,168.57031 168.57143,168.57143 0 0 0 168.57031,337.14258 168.57143,168.57143 0 0 0 337.14258,168.57031 168.57143,168.57143 0 0 0 168.57031,0 Z m 0,36.957031 A 131.61419,131.61419 0 0 1 300.18555,168.57031 131.61419,131.61419 0 0 1 168.57031,300.18555 131.61419,131.61419 0 0 1 36.957031,168.57031 131.61419,131.61419 0 0 1 168.57031,36.957031 Z"
       transform="translate(145.71484,246.64844)"
       id="path3336"
       inkscape:connector-curvature="0" />
    <path
       style="display:inline;fill:#2890cb;fill-opacity:1;stroke:none"
       d="m 108.5,71.806641 c -3.878,0 -7,3.122 -7,7 l 0,52.335939 134,0 0,-52.335939 c 0,-3.878 -3.122,-7 -7,-7 l -120,0 z m -7,68.335939 0,51 134,0 0,-51 -134,0 z m 0,60 0,58.33594 c 0,3.878 3.122,7 7,7 l 120,0 c 3.878,0 7,-3.122 7,-7 l 0,-58.33594 -134,0 z m 103.5,24.5 a 14.5,14.5 0 0 1 14.5,14.5 14.5,14.5 0 0 1 -14.5,14.5 14.5,14.5 0 0 1 -14.5,-14.5 14.5,14.5 0 0 1 14.5,-14.5 z"
       id="rect4160"
       inkscape:connector-curvature="0"
       transform="translate(145.71484,246.64844)" />
  </g>
</svg>
