<?xml version="1.0" encoding="UTF-8" standalone="no"?>
<!-- Created with Inkscape (http://www.inkscape.org/) -->

<svg
   xmlns:dc="http://purl.org/dc/elements/1.1/"
   xmlns:cc="http://creativecommons.org/ns#"
   xmlns:rdf="http://www.w3.org/1999/02/22-rdf-syntax-ns#"
   xmlns:svg="http://www.w3.org/2000/svg"
   xmlns="http://www.w3.org/2000/svg"
   xmlns:sodipodi="http://sodipodi.sourceforge.net/DTD/sodipodi-0.dtd"
   xmlns:inkscape="http://www.inkscape.org/namespaces/inkscape"
   width="95.149132mm"
   height="95.149132mm"
   viewBox="0 0 337.14259 337.14259"
   id="svg2"
   version="1.1"
   inkscape:version="0.91 r13725"
   sodipodi:docname="drawing.svg">
  <defs
     id="defs4" />
  <sodipodi:namedview
     id="base"
     pagecolor="#ffffff"
     bordercolor="#666666"
     borderopacity="1.0"
     inkscape:pageopacity="0.0"
     inkscape:pageshadow="2"
     inkscape:zoom="1.4142136"
     inkscape:cx="66.667316"
     inkscape:cy="50.552588"
     inkscape:document-units="px"
     inkscape:current-layer="g4190"
     showgrid="false"
     inkscape:window-width="1871"
     inkscape:window-height="1056"
     inkscape:window-x="49"
     inkscape:window-y="24"
     inkscape:window-maximized="1"
     showguides="true"
     inkscape:guide-bbox="true"
     fit-margin-top="0"
     fit-margin-left="0"
     fit-margin-right="0"
     fit-margin-bottom="0">
    <sodipodi:guide
       position="168.57032,337.36242"
       orientation="1,0"
       id="guide4198" />
    <sodipodi:guide
       position="-0.18359113,168.56554"
       orientation="0,1"
       id="guide4200" />
  </sodipodi:namedview>
  <metadata
     id="metadata7">
    <rdf:RDF>
      <cc:Work
         rdf:about="">
        <dc:format>image/svg+xml</dc:format>
        <dc:type
           rdf:resource="http://purl.org/dc/dcmitype/StillImage" />
        <dc:title />
      </cc:Work>
    </rdf:RDF>
  </metadata>
  <g
     inkscape:label="Camada 1"
     inkscape:groupmode="layer"
     id="layer1"
     style="display:inline"
     transform="translate(-145.71484,-246.64844)"
     sodipodi:insensitive="true">
    <path
       style="fill:#2890cb;fill-opacity:1;fill-rule:evenodd;stroke:none;stroke-width:1px;stroke-linecap:butt;stroke-linejoin:miter;stroke-opacity:1"
       d="M 168.57031,0 A 168.57143,168.57143 0 0 0 0,168.57031 168.57143,168.57143 0 0 0 168.57031,337.14258 168.57143,168.57143 0 0 0 337.14258,168.57031 168.57143,168.57143 0 0 0 168.57031,0 Z m 0,36.957031 A 131.61419,131.61419 0 0 1 300.18555,168.57031 131.61419,131.61419 0 0 1 168.57031,300.18555 131.61419,131.61419 0 0 1 36.957031,168.57031 131.61419,131.61419 0 0 1 168.57031,36.957031 Z"
       transform="translate(145.71484,246.64844)"
       id="path3336"
       inkscape:connector-curvature="0" />
  </g>
  <g
     inkscape:groupmode="layer"
     id="layer2"
     inkscape:label="dentro"
     transform="translate(-145.71484,-246.64844)"
     style="display:none"
     sodipodi:insensitive="true">
    <path
       style="fill:#2890cb;fill-opacity:1;fill-rule:evenodd;stroke:none;stroke-width:1px;stroke-linecap:butt;stroke-linejoin:miter;stroke-opacity:1"
       d="m 228.25673,348.32587 -0.10439,12.89265 17.66868,42.77542 36.40738,88.08238 32.05546,18.58212 32.61659,-18.58212 53.50189,-129.29189 -0.0522,-14.87614 -20.87878,-12.0575 -43.48008,25.10674 0.36538,12.57947 -14.79785,37.86891 -7.27495,17.92965 -21.30288,-55.64197 -0.1044,-12.63166 -43.11469,-25.26334 z"
       id="path4208"
       inkscape:connector-curvature="0"
       sodipodi:nodetypes="ccccccccccccccccc" />
  </g>
  <g
     inkscape:groupmode="layer"
     id="layer3"
     inkscape:label="Hexa"
     style="display:none"
     sodipodi:insensitive="true">
    <path
       sodipodi:type="star"
       style="fill:#2890cb;fill-opacity:1;stroke:none"
       id="path4142"
       sodipodi:sides="6"
       sodipodi:cx="168.57031"
       sodipodi:cy="168.57706"
       sodipodi:r1="99.836235"
       sodipodi:r2="86.460716"
       sodipodi:arg1="0.52359878"
       sodipodi:arg2="1.0471976"
       inkscape:flatsided="true"
       inkscape:rounded="0"
       inkscape:randomized="0"
       d="m 255.03103,218.49517 -86.46072,49.91812 -86.460713,-49.91812 0,-99.83623 86.460713,-49.918118 86.46072,49.918118 z" />
  </g>
  <g
     inkscape:label="Hexa V"
     id="g4144"
     inkscape:groupmode="layer"
     style="display:none"
     sodipodi:insensitive="true">
    <path
       style="fill:#2890cb;fill-opacity:1;stroke:none"
       d="m 168.57031,60.240234 -93.822263,54.167966 0,108.33789 93.822263,54.16797 93.82227,-54.16797 0,-108.33789 z m -35.02343,51.699216 35.70312,88.61524 35.70312,-88.61524 24.11524,9.7168 -48.02148,119.18945 c 0,0 -8.26441,0.0191 -12.50399,0.0191 -4.23957,0 -11.08977,-0.0191 -11.08977,-0.0191 L 109.43164,121.65625 Z"
       id="path4146"
       inkscape:connector-curvature="0"
       sodipodi:nodetypes="ccccccccccccsccc" />
  </g>
  <g
     style="display:none"
     inkscape:groupmode="layer"
     id="g4156"
     inkscape:label="Server"
     sodipodi:insensitive="true">
    <path
       style="fill:#2890cb;fill-opacity:1;stroke:none"
       d="m 108.5,71.806641 c -3.878,0 -7,3.122 -7,7 l 0,52.335939 134,0 0,-52.335939 c 0,-3.878 -3.122,-7 -7,-7 l -120,0 z m -7,68.335939 0,51 134,0 0,-51 -134,0 z m 0,60 0,58.33594 c 0,3.878 3.122,7 7,7 l 120,0 c 3.878,0 7,-3.122 7,-7 l 0,-58.33594 -134,0 z m 103.5,24.5 a 14.5,14.5 0 0 1 14.5,14.5 14.5,14.5 0 0 1 -14.5,14.5 14.5,14.5 0 0 1 -14.5,-14.5 14.5,14.5 0 0 1 14.5,-14.5 z"
       id="rect4160"
       inkscape:connector-curvature="0" />
  </g>
  <g
     inkscape:groupmode="layer"
     id="layer4"
     inkscape:label="Ball"
     style="display:none"
     sodipodi:insensitive="true">
    <circle
       style="display:inline;fill:#2890cb;fill-opacity:1;stroke:none"
       id="path4162"
       cx="168.5"
       cy="168.64259"
       r="100.42969" />
  </g>
  <g
     style="display:inline"
     inkscape:label="Flour"
     id="g4190"
     inkscape:groupmode="layer">
    <path
       style="display:inline;fill:#2890cb;fill-opacity:1;stroke:none"
       d="M 168.5 68.212891 A 100.42969 100.42969 0 0 0 118.35352 81.773438 A 100.42969 100.42969 0 0 1 168.5625 168.43555 A 100.42969 100.42969 0 0 1 168.46875 168.49609 A 100.42969 100.42969 0 0 1 118.32227 81.791016 A 100.42969 100.42969 0 0 0 68.070312 168.64258 A 100.42969 100.42969 0 0 0 168.5 269.07227 A 100.42969 100.42969 0 0 0 218.71875 255.4707 A 100.42969 100.42969 0 0 1 168.57617 168.81055 A 100.42969 100.42969 0 0 1 218.73828 255.45898 A 100.42969 100.42969 0 0 0 268.92969 168.64258 A 100.42969 100.42969 0 0 0 168.5 68.212891 z M 218.74414 81.835938 A 100.42969 100.42969 0 0 1 168.58203 168.42383 A 100.42969 100.42969 0 0 1 218.74414 81.835938 z M 218.74609 155.1875 A 100.42969 100.42969 0 0 1 268.74805 168.61719 A 100.42969 100.42969 0 0 1 218.74609 182.0957 A 100.42969 100.42969 0 0 1 168.74414 168.66406 A 100.42969 100.42969 0 0 1 218.74609 155.1875 z M 118.32031 155.22656 A 100.42969 100.42969 0 0 1 168.25781 168.61719 A 100.42969 100.42969 0 0 1 118.32031 182.05664 A 100.42969 100.42969 0 0 1 68.382812 168.66602 A 100.42969 100.42969 0 0 1 118.32031 155.22656 z M 168.56445 168.76758 A 100.42969 100.42969 0 0 1 118.32227 255.49219 A 100.42969 100.42969 0 0 1 168.56445 168.76758 z "
       id="circle4192" />
  </g>
</svg>
